<?xml version="1.0" encoding="UTF-8"?>
<svg id="_レイヤー_2" data-name="レイヤー 2" xmlns="http://www.w3.org/2000/svg" xmlns:xlink="http://www.w3.org/1999/xlink" viewBox="0 0 160 160">
  <defs>
    <style>
      .cls-1 {
        fill: url(#_名称未設定グラデーション);
      }

      .cls-2 {
        fill: url(#_新規グラデーションスウォッチ_1);
      }

      .cls-3 {
        clip-path: url(#clippath);
      }
    </style>
    <linearGradient id="_新規グラデーションスウォッチ_1" data-name="新規グラデーションスウォッチ 1" x1="8.1" y1="79.54" x2="151.9" y2="79.54" gradientUnits="userSpaceOnUse">
      <stop offset="0" stop-color="#fff"/>
      <stop offset="1" stop-color="#000"/>
    </linearGradient>
    <clipPath id="clippath">
      <path class="cls-2" d="M40.97,36.8c-.93,0-1.4-.26-1.93-1.01l-1.48-2.13-1.48,2.13c-.53.75-1,1.01-1.93,1.01h-.9v-1.19h.7c.69,0,1.01-.19,1.42-.75l1.52-2.17-1.71-2.45c-.3-.42-.55-.55-.96-.55h-.88v-1.2h1.07c.65,0,1.02.22,1.47.84l1.7,2.4,1.67-2.4c.42-.61.84-.84,1.48-.84h1.07v1.2h-.86c-.43,0-.7.13-.98.55l-1.7,2.44,1.52,2.18c.38.55.71.75,1.42.75h.7v1.19h-.92ZM49.51,30.49v6.31h-1.2v-6.31h-2.29v-1.17h2.29v-1.27c0-1.56.74-2.22,2.41-2.22h3.15v1.17h-3.09c-.96,0-1.28.4-1.28,1.28v1.04h4.37v1.17h-4.37ZM58.36,31.84v-1.23h5.28v1.23h-5.28ZM75.88,36.8h-5.18c-1.58,0-2.44-.77-2.44-2.57v-5.73h1.17v5.62c0,1.13.4,1.52,1.39,1.52h1.91v-7.14h1.09v7.14h1.93c1,0,1.39-.4,1.39-1.52v-5.62h1.17v5.73c0,1.81-.86,2.57-2.44,2.57ZM88.71,33.41h-4.69v.81c0,.96.34,1.51,1.67,1.51h5.39v1.09h-5.55c-1.86,0-2.72-.9-2.72-2.61v-3.26c0-1.29.77-2.44,2.83-2.44h3.03c1.98,0,2.53,1.12,2.53,2.26v.57c0,1.24-.51,2.08-2.49,2.08ZM90,30.83c0-.73-.34-1.23-1.42-1.23h-2.79c-1.42,0-1.77.65-1.77,1.4v1.46h4.56c1.08,0,1.42-.4,1.42-1.15v-.49ZM101.05,36.82h-1.93c-2.18,0-3.29-1.21-3.29-3.32v-7.67h1.19v3.53c.66-.55,1.55-.86,2.47-.86h1.59c2.16,0,3.25,1.4,3.25,3.32v1.68c0,1.94-.97,3.32-3.28,3.32ZM103.14,31.92c0-1.29-.71-2.25-2.32-2.25h-1.24c-1.62,0-2.56.78-2.56,2.31v1.42c0,1.46.74,2.26,2.32,2.26h1.48c1.63,0,2.32-.86,2.32-2.26v-1.47ZM115.42,34.65c-.57,1.91-1.1,2.18-2.39,2.18h-.3c-1.08,0-1.81-.16-2.4-2.17l-1.82-6.17h1.19l1.69,5.74c.39,1.35.8,1.4,1.4,1.4h.18c.71,0,1.01-.05,1.41-1.43l1.69-5.72h1.19l-1.83,6.16ZM122.98,36.8h-1.79v-1.13h1.7c1.4,0,2.1-.53,2.1-2.09v-6.7h1.2v6.77c0,2.18-1.02,3.15-3.21,3.15ZM124.99,25.67v-1.62h1.2v1.62h-1.2ZM87.96,44.89v70.13c0,2.48,2.01,4.49,4.49,4.49h47.58c7.49-11.35,11.86-24.94,11.86-39.55s-4.37-28.2-11.86-39.55h-47.59c-2.48,0-4.48,2.01-4.48,4.48ZM72.04,115.01V44.89c0-2.48-2.01-4.48-4.48-4.48H19.97c-7.49,11.35-11.86,24.94-11.86,39.55s4.37,28.2,11.86,39.55h47.58c2.48,0,4.49-2.01,4.49-4.49ZM135.16,126.05h-48.1c-.77-3.19-3.64-5.57-7.07-5.57s-6.3,2.38-7.07,5.57H24.84c.98,1.17,2,2.3,3.05,3.41h45.04c.77,3.19,3.64,5.57,7.07,5.57s6.3-2.38,7.07-5.57h45.04c1.05-1.1,2.07-2.24,3.05-3.41Z"/>
    </clipPath>
    <linearGradient id="_名称未設定グラデーション" data-name="名称未設定グラデーション" x1="0" y1="80" x2="160" y2="80" gradientUnits="userSpaceOnUse">
      <stop offset="0" stop-color="#142850"/>
      <stop offset=".14" stop-color="#14365f"/>
      <stop offset=".29" stop-color="#13476f"/>
      <stop offset=".43" stop-color="#125d80"/>
      <stop offset=".57" stop-color="#107792"/>
      <stop offset=".71" stop-color="#0d96a5"/>
      <stop offset=".86" stop-color="#09b8b4"/>
      <stop offset="1" stop-color="#04ccb1"/>
    </linearGradient>
  </defs>
  <path class="cls-2" d="M40.97,36.8c-.93,0-1.4-.26-1.93-1.01l-1.48-2.13-1.48,2.13c-.53.75-1,1.01-1.93,1.01h-.9v-1.19h.7c.69,0,1.01-.19,1.42-.75l1.52-2.17-1.71-2.45c-.3-.42-.55-.55-.96-.55h-.88v-1.2h1.07c.65,0,1.02.22,1.47.84l1.7,2.4,1.67-2.4c.42-.61.84-.84,1.48-.84h1.07v1.2h-.86c-.43,0-.7.13-.98.55l-1.7,2.44,1.52,2.18c.38.55.71.75,1.42.75h.7v1.19h-.92ZM49.51,30.49v6.31h-1.2v-6.31h-2.29v-1.17h2.29v-1.27c0-1.56.74-2.22,2.41-2.22h3.15v1.17h-3.09c-.96,0-1.28.4-1.28,1.28v1.04h4.37v1.17h-4.37ZM58.36,31.84v-1.23h5.28v1.23h-5.28ZM75.88,36.8h-5.18c-1.58,0-2.44-.77-2.44-2.57v-5.73h1.17v5.62c0,1.13.4,1.52,1.39,1.52h1.91v-7.14h1.09v7.14h1.93c1,0,1.39-.4,1.39-1.52v-5.62h1.17v5.73c0,1.81-.86,2.57-2.44,2.57ZM88.71,33.41h-4.69v.81c0,.96.34,1.51,1.67,1.51h5.39v1.09h-5.55c-1.86,0-2.72-.9-2.72-2.61v-3.26c0-1.29.77-2.44,2.83-2.44h3.03c1.98,0,2.53,1.12,2.53,2.26v.57c0,1.24-.51,2.08-2.49,2.08ZM90,30.83c0-.73-.34-1.23-1.42-1.23h-2.79c-1.42,0-1.77.65-1.77,1.4v1.46h4.56c1.08,0,1.42-.4,1.42-1.15v-.49ZM101.05,36.82h-1.93c-2.18,0-3.29-1.21-3.29-3.32v-7.67h1.19v3.53c.66-.55,1.55-.86,2.47-.86h1.59c2.16,0,3.25,1.4,3.25,3.32v1.68c0,1.94-.97,3.32-3.28,3.32ZM103.14,31.92c0-1.29-.71-2.25-2.32-2.25h-1.24c-1.62,0-2.56.78-2.56,2.31v1.42c0,1.46.74,2.26,2.32,2.26h1.48c1.63,0,2.32-.86,2.32-2.26v-1.47ZM115.42,34.65c-.57,1.91-1.1,2.18-2.39,2.18h-.3c-1.08,0-1.81-.16-2.4-2.17l-1.82-6.17h1.19l1.69,5.74c.39,1.35.8,1.4,1.4,1.4h.18c.71,0,1.01-.05,1.41-1.43l1.69-5.72h1.19l-1.83,6.16ZM122.98,36.8h-1.79v-1.13h1.7c1.4,0,2.1-.53,2.1-2.09v-6.7h1.2v6.77c0,2.18-1.02,3.15-3.21,3.15ZM124.99,25.67v-1.62h1.2v1.62h-1.2ZM87.96,44.89v70.13c0,2.48,2.01,4.49,4.49,4.49h47.58c7.49-11.35,11.86-24.94,11.86-39.55s-4.37-28.2-11.86-39.55h-47.59c-2.48,0-4.48,2.01-4.48,4.48ZM72.04,115.01V44.89c0-2.48-2.01-4.48-4.48-4.48H19.97c-7.49,11.35-11.86,24.94-11.86,39.55s4.37,28.2,11.86,39.55h47.58c2.48,0,4.49-2.01,4.49-4.49ZM135.16,126.05h-48.1c-.77-3.19-3.64-5.57-7.07-5.57s-6.3,2.38-7.07,5.57H24.84c.98,1.17,2,2.3,3.05,3.41h45.04c.77,3.19,3.64,5.57,7.07,5.57s6.3-2.38,7.07-5.57h45.04c1.05-1.1,2.07-2.24,3.05-3.41Z"/>
  <g class="cls-3">
    <rect class="cls-1" width="160" height="160"/>
  </g>
</svg>